<?xml version="1.0" encoding="utf-8"?>
<!-- Generator: Adobe Illustrator 19.2.1, SVG Export Plug-In . SVG Version: 6.00 Build 0)  -->
<svg version="1.1" id="Layer_39_xA0_Изображение_1_"
	 xmlns="http://www.w3.org/2000/svg" xmlns:xlink="http://www.w3.org/1999/xlink" x="0px" y="0px" viewBox="0 0 102 65"
	 style="enable-background:new 0 0 102 65;" xml:space="preserve">
<style type="text/css">
	.st0{fill:#D1D1D1;}
	.st1{fill:#D8D8D8;}
	.st2{fill:none;}
	.st3{fill:#E03C46;}
</style>
<polygon class="st0" points="102,65 55.7,65 55.7,0 102,16.7 "/>
<polygon class="st1" points="0,65 0,19.1 55.7,0 55.7,65 42,65 42,20.9 7,29.1 7.2,65 "/>
<path class="st2" d="M42,20.9"/>
<polygon class="st1" points="44.9,22.3 4.1,31.6 3.7,33 44.7,23.9 "/>
<polygon class="st1" points="44.5,25.7 3.7,34.9 3.3,36.4 44.4,27.2 "/>
<polygon class="st1" points="44.3,28.9 3.5,38.2 3.1,39.7 44.2,30.5 "/>
<polygon class="st1" points="44.3,32.2 3.5,41.5 3.1,42.9 44.2,33.8 "/>
<path class="st3" d="M11.3,55.6c0-4.7,0-6,0-6c0-0.1,2-0.3,2-0.9c0-0.3,5.1-0.6,5.3,0c0.1,0.7,2.6,0.5,2.6,1c-0.1,0.8,0,5.2,0,6
	C18.6,54,13.4,53.9,11.3,55.6L11.3,55.6z"/>
<path class="st3" d="M11.3,63.8c0-5.2,0-6.8,0-6.8c0-0.1,2-0.3,2-1c0-0.3,5.1-0.7,5.3,0c0.1,0.8,2.6,0.6,2.6,1.1
	c-0.1,0.9,0,5.8,0,6.7C18.6,61.9,13.4,61.8,11.3,63.8L11.3,63.8z"/>
<path class="st3" d="M23.4,57.4c0-3.8,0-4.9,0-4.9c0-0.1,1.5-0.2,1.5-0.7c0-0.2,3.9-0.5,4,0c0.1,0.5,2,0.4,1.9,0.8
	c0,0.6,0,4.2,0,4.8C29,56,25,55.9,23.4,57.4L23.4,57.4z"/>
<path class="st3" d="M23.4,63.8c0-4.2,0-5.5,0-5.5c0-0.1,1.5-0.2,1.5-0.8c0-0.2,3.9-0.5,4,0c0.1,0.6,2,0.5,1.9,0.9
	c0,0.7,0,4.7,0,5.4C28.9,62.3,25,62.2,23.4,63.8L23.4,63.8z"/>
<path class="st3" d="M33.3,63.4c0-3,0-3.9,0-3.9c0-0.1,1.2-0.2,1.3-0.6c0-0.2,3.2-0.4,3.3,0c0.1,0.4,1.6,0.3,1.6,0.6
	c0,0.5,0,3.4,0,3.9C37.9,62.4,34.7,62.3,33.3,63.4L33.3,63.4z"/>
</svg>
