<svg xmlns="http://www.w3.org/2000/svg" width="297" height="18" viewBox="0 0 297 18">
  <defs>
    <style>
      .cls-1 {
        fill: #222;
        fill-rule: evenodd;
      }
    </style>
  </defs>
  <path id="Warehouse_solutions_copy" data-name="Warehouse solutions copy" class="cls-1" d="M663.18,125.252h-3.127L657.1,137.688l-2.424-12.436H651l3.975,17.511h3.717l2.917-11.714,2.917,11.714h3.717l3.976-17.511h-3.68l-2.413,12.46Zm22.64,17.511h3.926l-6.708-17.511h-3.421l-6.671,17.511h3.926l1.231-3.608h6.474Zm-4.493-13.085,2.253,6.554H679.1Zm20.339,13.085h3.963V142.6l-3.877-7.156a5.4,5.4,0,0,0,2.407-1.907,5.293,5.293,0,0,0,.793-2.988,4.725,4.725,0,0,0-1.723-3.909,7.65,7.65,0,0,0-4.9-1.383h-6.659v17.511h3.692v-6.41h2.942Zm-6.3-14.589h2.967a3.037,3.037,0,0,1,2.209.71,2.61,2.61,0,0,1,.72,1.948,2.443,2.443,0,0,1-.763,1.907,3.1,3.1,0,0,1-2.154.691h-2.979v-5.256Zm23.428,4.174H711.7v-4.174H720v-2.922H708.011v17.511h12.012v-2.9H711.7V135.15h7.089v-2.8Zm18.234-7.1h-3.692v7.1h-7.2v-7.1h-3.692v17.511h3.692v-7.5h7.2v7.5h3.692V125.252Zm18.2,8.371a10.3,10.3,0,0,0-.954-4.541,7,7,0,0,0-2.7-3.019,8.06,8.06,0,0,0-7.963,0,6.989,6.989,0,0,0-2.695,3.019,10.313,10.313,0,0,0-.954,4.553V134.5a10.071,10.071,0,0,0,.972,4.468,7,7,0,0,0,2.708,2.988,8.065,8.065,0,0,0,7.969-.012,6.931,6.931,0,0,0,2.677-3.006,10.363,10.363,0,0,0,.936-4.535v-0.781Zm-3.742.841a7.289,7.289,0,0,1-1.009,4.156,3.583,3.583,0,0,1-5.76-.054,7.33,7.33,0,0,1-1.01-4.162V133.55a7.151,7.151,0,0,1,1.022-4.143,3.615,3.615,0,0,1,5.748.018,7.244,7.244,0,0,1,1.009,4.186v0.853Zm16.535-9.212v11.654q-0.048,3.2-3.163,3.2a2.874,2.874,0,0,1-3.175-3.295V125.252h-3.693v11.666a5.741,5.741,0,0,0,1.884,4.462A7.28,7.28,0,0,0,764.854,143a7.2,7.2,0,0,0,5.028-1.672,5.834,5.834,0,0,0,1.84-4.546V125.252h-3.7Zm15.539,14.378a3.505,3.505,0,0,1-2.055.523q-3.546,0-3.545-2.9h-3.705a5.1,5.1,0,0,0,.893,2.982,5.922,5.922,0,0,0,2.59,2.027,9.341,9.341,0,0,0,3.767.74,7.834,7.834,0,0,0,4.738-1.293,4.182,4.182,0,0,0,1.76-3.566,4.524,4.524,0,0,0-1.44-3.416,11.278,11.278,0,0,0-4.591-2.3,10.081,10.081,0,0,1-2.591-1.083,1.683,1.683,0,0,1-.88-1.431,1.752,1.752,0,0,1,.751-1.473,3.464,3.464,0,0,1,2.1-.559,3.236,3.236,0,0,1,2.178.667,2.336,2.336,0,0,1,.776,1.87H788a4.936,4.936,0,0,0-.831-2.814,5.41,5.41,0,0,0-2.332-1.918,8.217,8.217,0,0,0-3.422-.68,9.033,9.033,0,0,0-3.44.626,5.327,5.327,0,0,0-2.35,1.737,4.163,4.163,0,0,0-.819,2.532q0,2.73,3.052,4.342a19.085,19.085,0,0,0,3.041,1.2,9.786,9.786,0,0,1,2.658,1.154,1.837,1.837,0,0,1,.739,1.57A1.691,1.691,0,0,1,783.556,139.63Zm17.976-7.282h-7.09v-4.174h8.3v-2.922H790.75v17.511h12.012v-2.9h-8.32V135.15h7.09v-2.8Zm18.732,7.282a3.509,3.509,0,0,1-2.056.523q-3.544,0-3.544-2.9h-3.705a5.1,5.1,0,0,0,.892,2.982,5.931,5.931,0,0,0,2.591,2.027,9.336,9.336,0,0,0,3.766.74,7.838,7.838,0,0,0,4.739-1.293,4.182,4.182,0,0,0,1.76-3.566,4.524,4.524,0,0,0-1.44-3.416,11.278,11.278,0,0,0-4.591-2.3,10.065,10.065,0,0,1-2.591-1.083,1.683,1.683,0,0,1-.88-1.431,1.75,1.75,0,0,1,.751-1.473,3.462,3.462,0,0,1,2.105-.559,3.236,3.236,0,0,1,2.178.667,2.336,2.336,0,0,1,.776,1.87h3.692a4.936,4.936,0,0,0-.831-2.814,5.416,5.416,0,0,0-2.332-1.918,8.217,8.217,0,0,0-3.422-.68,9.029,9.029,0,0,0-3.44.626,5.336,5.336,0,0,0-2.351,1.737,4.169,4.169,0,0,0-.818,2.532q0,2.73,3.052,4.342a19.107,19.107,0,0,0,3.04,1.2,9.8,9.8,0,0,1,2.659,1.154,1.836,1.836,0,0,1,.738,1.57A1.69,1.69,0,0,1,820.264,139.63Zm21.914-6.007a10.284,10.284,0,0,0-.954-4.541,7,7,0,0,0-2.7-3.019,8.062,8.062,0,0,0-7.964,0,7,7,0,0,0-2.7,3.019,10.313,10.313,0,0,0-.954,4.553V134.5a10.071,10.071,0,0,0,.972,4.468,7,7,0,0,0,2.708,2.988,8.067,8.067,0,0,0,7.97-.012,6.937,6.937,0,0,0,2.677-3.006,10.377,10.377,0,0,0,.935-4.535v-0.781Zm-3.742.841a7.281,7.281,0,0,1-1.009,4.156,3.583,3.583,0,0,1-5.76-.054,7.33,7.33,0,0,1-1.009-4.162V133.55a7.152,7.152,0,0,1,1.021-4.143,3.615,3.615,0,0,1,5.748.018,7.236,7.236,0,0,1,1.009,4.186v0.853Zm10.37-9.212h-3.693v17.511h11.533v-2.9h-7.84V125.252Zm20.067,0v11.654q-0.048,3.2-3.163,3.2a2.874,2.874,0,0,1-3.175-3.295V125.252h-3.693v11.666a5.741,5.741,0,0,0,1.884,4.462A7.28,7.28,0,0,0,865.71,143a7.2,7.2,0,0,0,5.028-1.672,5.834,5.834,0,0,0,1.84-4.546V125.252h-3.7Zm20.475,0h-14.6v2.922h5.416v14.589h3.692V128.174h5.49v-2.922Zm6.282,0h-3.692v17.511h3.692V125.252Zm18.394,8.371a10.3,10.3,0,0,0-.953-4.541,7,7,0,0,0-2.7-3.019,8.06,8.06,0,0,0-7.963,0,7,7,0,0,0-2.7,3.019,10.313,10.313,0,0,0-.953,4.553V134.5a10.071,10.071,0,0,0,.972,4.468,7,7,0,0,0,2.708,2.988,8.065,8.065,0,0,0,7.969-.012,6.937,6.937,0,0,0,2.677-3.006,10.363,10.363,0,0,0,.935-4.535v-0.781Zm-3.741.841a7.289,7.289,0,0,1-1.009,4.156,3.584,3.584,0,0,1-5.761-.054A7.338,7.338,0,0,1,902.5,134.4V133.55a7.151,7.151,0,0,1,1.022-4.143,3.615,3.615,0,0,1,5.748.018,7.244,7.244,0,0,1,1.009,4.186v0.853Zm21.249-9.212h-3.68V136.8l-7.2-11.546H916.96v17.511h3.692V131.241l7.188,11.522h3.692V125.252Zm12.031,14.378a3.505,3.505,0,0,1-2.055.523q-3.545,0-3.545-2.9h-3.7a5.1,5.1,0,0,0,.893,2.982,5.922,5.922,0,0,0,2.59,2.027,9.341,9.341,0,0,0,3.767.74,7.834,7.834,0,0,0,4.738-1.293,4.18,4.18,0,0,0,1.76-3.566,4.524,4.524,0,0,0-1.44-3.416,11.278,11.278,0,0,0-4.591-2.3,10.056,10.056,0,0,1-2.59-1.083,1.681,1.681,0,0,1-.88-1.431,1.751,1.751,0,0,1,.75-1.473,3.464,3.464,0,0,1,2.105-.559,3.234,3.234,0,0,1,2.178.667,2.336,2.336,0,0,1,.776,1.87h3.692a4.936,4.936,0,0,0-.831-2.814,5.41,5.41,0,0,0-2.332-1.918,8.212,8.212,0,0,0-3.421-.68,9.035,9.035,0,0,0-3.441.626,5.327,5.327,0,0,0-2.35,1.737,4.163,4.163,0,0,0-.819,2.532q0,2.73,3.052,4.342a19.123,19.123,0,0,0,3.041,1.2,9.786,9.786,0,0,1,2.658,1.154,1.837,1.837,0,0,1,.739,1.57A1.691,1.691,0,0,1,943.563,139.63Z" transform="translate(-651 -125)"/>
</svg>
